<svg width="19" height="13" viewBox="0 0 19 13" fill="none" xmlns="http://www.w3.org/2000/svg">
<path d="M18.1426 5.61955C18.3727 5.87446 18.5 6.20564 18.5 6.54902C18.5 6.89239 18.3727 7.22357 18.1426 7.47848C16.686 9.04607 13.3704 12.098 9.5 12.098C5.62956 12.098 2.31403 9.04607 0.85741 7.47848C0.627348 7.22357 0.5 6.89239 0.5 6.54902C0.5 6.20564 0.627348 5.87446 0.85741 5.61955C2.31403 4.05196 5.62956 1 9.5 1C13.3704 1 16.686 4.05196 18.1426 5.61955Z" stroke="#535F5F" stroke-linecap="round" stroke-linejoin="round"/>
<path d="M9.50009 9.32355C11.0324 9.32355 12.2746 8.08136 12.2746 6.54904C12.2746 5.01673 11.0324 3.77454 9.50009 3.77454C7.96778 3.77454 6.72559 5.01673 6.72559 6.54904C6.72559 8.08136 7.96778 9.32355 9.50009 9.32355Z" stroke="#535F5F" stroke-linecap="round" stroke-linejoin="round"/>
</svg>
